<svg width="66" height="56" viewBox="0 0 66 56" fill="none" xmlns="http://www.w3.org/2000/svg">
<path d="M1.87931 49.9881C1.21132 49.5427 -2.6853 47.4274 3.21529 41.9722C2.76996 41.0815 2.76996 39.7455 5.21927 38.0755C7.66857 36.4056 11.7879 34.0676 13.1238 32.6203C12.2332 33.9563 10.2292 35.7376 7.66857 37.4076C5.10794 39.0775 4.55128 40.0795 5.44193 40.9702C6.33259 40.4135 7.33458 39.3002 7.33458 39.3002C6.44392 40.6362 4.9966 42.1948 2.76996 44.3101C0.654657 46.4254 -0.0133362 48.5408 1.87931 49.9881ZM13.9032 40.9702C14.2372 41.6382 13.6805 42.6402 11.2312 43.5308C14.3485 43.5308 18.2451 40.6362 18.6904 39.3002C15.9071 40.1909 17.9111 38.7435 20.6944 37.1849C27.931 33.2883 31.1596 29.169 31.8276 26.7197C27.931 34.0676 19.0244 36.8509 15.5731 37.8529C10.2292 39.4115 7.33458 42.8628 6.55525 44.0875C10.1179 40.7475 13.4578 39.9682 13.9032 40.9702ZM3.54929 51.1014C3.54929 49.7654 4.66261 47.6501 10.3405 47.2048C16.0185 46.7594 18.9131 46.7594 20.3604 46.2028C17.7998 46.5368 16.5751 45.7575 16.9091 44.8668C17.2431 43.9761 20.3604 41.9722 19.1358 39.7455C19.0244 40.9702 18.4678 42.6402 13.6805 44.7555C11.4539 45.7575 9.11589 45.9801 7.22325 46.7594C4.77394 47.6501 2.99263 49.2087 3.54929 51.1014ZM30.3803 41.0815C29.0443 41.6382 26.7063 42.9742 25.927 41.0815C25.0364 39.1889 28.3763 37.6302 28.8217 38.6322C29.267 39.6342 28.265 40.6362 27.931 40.6362C28.933 40.5248 31.1596 38.4095 31.8276 34.2903C32.4956 30.171 36.0582 20.1511 46.0781 16.5885C40.2888 18.2584 35.9469 22.0437 30.1576 31.173C27.8197 34.7356 20.3604 43.9761 17.7998 44.9781C20.5831 45.6461 26.929 45.3121 30.3803 41.0815ZM31.605 39.9682C30.937 41.3042 27.931 44.6441 25.8157 46.8708C23.7004 49.0974 22.6984 51.8807 23.4777 53.662C24.257 55.4433 26.7063 56 26.7063 56C25.4817 54.998 25.3704 53.1054 27.8197 51.1014C30.269 48.9861 31.0483 46.7594 30.937 45.5348C30.603 46.4254 29.0443 47.8728 28.1537 48.7634C27.263 49.5427 26.3723 50.0994 25.927 50.9901C26.1497 49.6541 27.3743 47.9841 28.4877 46.7594C29.601 45.4235 31.9389 42.8628 31.605 39.9682ZM32.4956 38.6322C33.7203 37.8529 39.2869 34.1789 38.8415 28.835C38.1735 30.0596 36.7262 31.173 36.3922 30.3936C36.0582 29.6143 38.6189 25.0497 41.8475 23.1571C39.0642 24.3817 34.3883 28.3897 33.4976 34.1789C34.0543 32.6203 36.0582 31.507 36.2809 32.1749C36.5036 32.8429 36.0582 35.2922 32.4956 38.6322ZM11.5652 35.6262C13.0125 36.0716 19.1358 36.1829 24.257 32.9543C23.2551 33.2883 21.8077 33.3996 21.4737 32.5089C21.1397 31.6183 22.8097 29.9483 24.257 28.835C25.8157 27.7217 31.271 23.1571 30.1576 20.7078C29.8236 19.9284 28.3763 20.1511 28.3763 20.1511C29.4896 19.0378 39.0642 10.4652 47.7481 6.45725C42.9608 7.90457 27.8197 17.7018 23.4777 21.8211C24.8137 21.2644 25.927 21.0417 26.0384 21.4871C26.261 21.9324 26.3723 23.3797 23.8117 26.2744C21.2511 29.3916 17.6885 32.6203 11.5652 35.6262ZM13.6805 33.6223C15.5731 32.8429 25.4817 24.827 24.3684 22.4891C24.1457 21.9324 18.6904 24.7157 18.0224 22.3777C17.7998 21.8211 18.0224 20.8191 21.9191 17.9245C28.599 12.9145 43.5175 4.67594 65.0046 0C58.8813 0.333996 44.1855 4.11928 28.0423 11.1332C11.8992 18.1471 8.78189 23.6024 9.56122 25.161C10.2292 26.7197 17.3545 24.0477 18.3564 26.3857C19.2471 28.6123 15.4618 32.1749 13.6805 33.6223ZM24.925 30.0596C27.4857 28.9463 31.3823 25.7177 34.3883 20.5964C37.2829 15.4751 49.7521 6.12326 61.3306 2.00398C57.2113 3.1173 42.8495 9.46322 31.0483 19.2604C32.2729 19.9284 33.2749 23.6024 24.925 30.0596ZM33.7203 30.505C35.0562 28.167 37.9509 23.4911 44.0741 20.8191C47.1914 19.4831 49.4181 19.2604 47.7481 21.8211C49.8634 19.8171 54.6507 14.6958 61.3306 14.0278C54.094 12.4692 38.7302 18.1471 33.7203 30.505ZM22.5871 19.9284C20.8057 21.1531 19.1358 22.2664 18.6904 22.2664C19.3584 23.0457 20.9171 22.9344 21.6964 22.1551C31.271 14.1392 44.1855 7.12525 49.1954 5.34394C43.2948 7.23658 32.4956 12.8032 22.5871 19.9284Z" fill="#30D5C8"/>
</svg>
