<svg width="181" height="32" viewBox="0 0 181 32" fill="none" xmlns="http://www.w3.org/2000/svg">
<path d="M8.69315 3.14753C6.89457 3.14753 5.69551 3.822 4.9461 5.17094C4.42151 6.14517 4.19669 7.64399 4.19669 9.66739C4.19669 11.5409 4.49646 12.8899 5.02105 13.7142C5.69552 14.6884 6.89457 15.213 8.69315 15.213H14.9882V18.3605H8.46833C7.19433 18.3605 6.2201 18.2856 5.47069 18.1357C4.49646 17.9109 3.59717 17.4613 2.77282 16.7868C0.899295 15.288 0 12.8899 0 9.59245C0 3.22247 2.9227 0.0749512 8.61821 0.0749512H14.9882V3.22247H8.69315V3.14753Z" fill="#30D5C8"/>
<path d="M16.7868 4.94604H20.309V11.391L26.0045 4.94604H30.501L24.2809 11.5408L30.501 18.3605H25.7047L20.309 11.8406V18.3605H16.7868V4.94604Z" fill="#30D5C8"/>
<path d="M31.6251 4.94604H38.8943C42.5664 4.94604 44.44 6.59475 44.44 9.96709V18.3605H34.9225C32.1496 18.3605 30.8007 17.0865 30.8007 14.4635C30.8007 12.8148 31.3253 11.6907 32.2995 11.0163C33.1239 10.4917 34.3979 10.1919 36.1215 10.1919H40.7679V9.89215C40.7679 8.99285 40.4681 8.39333 39.7936 8.09357C39.344 7.86874 38.5946 7.7938 37.5454 7.7938H31.6251V4.94604ZM36.3464 15.6626H40.7679V12.8898H36.5712C35.8967 12.8898 35.3721 12.9647 35.0723 13.1146C34.6227 13.3394 34.3979 13.7891 34.3979 14.3886C34.3979 14.9881 34.6227 15.2879 34.9974 15.5127C35.2222 15.5877 35.6719 15.6626 36.3464 15.6626Z" fill="#30D5C8"/>
<path d="M58.9036 18.3605H52.2339C50.3603 18.3605 49.0114 17.9858 48.1121 17.3114C47.1379 16.487 46.6133 15.213 46.6133 13.4144V4.9461H50.1355V13.1896C50.1355 14.0889 50.2854 14.6884 50.5852 14.9882C50.8849 15.288 51.4845 15.4378 52.3838 15.4378H55.2315V4.9461H58.7537V18.3605H58.9036ZM54.4821 3.37234H50.7351V0H54.4821V3.37234Z" fill="#30D5C8"/>
<path d="M75.915 3.22247H69.62V0.0749512H75.99C81.7604 0.0749512 84.6082 3.22247 84.6082 9.51751C84.6082 12.8149 83.7089 15.213 81.8354 16.7118C80.4864 17.761 78.6129 18.2856 76.1398 18.2856H69.62V15.1381H75.915C77.4888 15.1381 78.6129 14.7634 79.2874 14.0889C79.9618 13.4144 80.2616 12.2154 80.2616 10.7166H69.62V7.4941H80.2616C80.2616 4.64635 78.8377 3.22247 75.915 3.22247Z" fill="white"/>
<path d="M86.9316 4.94604H90.4538V11.391L96.1493 4.94604H100.646L94.4257 11.5408L100.646 18.3605H95.8496L90.4538 11.8406V18.3605H86.9316V4.94604Z" fill="white"/>
<path d="M108.739 15.438H112.486V18.3607H107.69C105.442 18.3607 103.718 17.8361 102.669 16.787C101.32 15.513 100.721 13.7893 100.721 11.7659C100.721 9.59264 101.395 7.869 102.669 6.595C103.793 5.54583 105.442 5.02124 107.69 5.02124H112.486V7.94394H108.739C107.165 7.94394 106.116 8.16876 105.442 8.69335C104.692 9.29287 104.318 10.2671 104.318 11.7659C104.318 13.7144 105.067 14.9134 106.491 15.3631C106.641 15.438 107.165 15.438 107.915 15.513C108.29 15.438 108.589 15.438 108.739 15.438Z" fill="white"/>
<path d="M114.06 4.94604H120.73C122.603 4.94604 123.952 5.32075 124.852 5.99522C125.826 6.74463 126.35 8.09356 126.35 9.89215V18.4354H122.828V10.2669C122.828 9.29262 122.678 8.69309 122.379 8.39333C122.079 8.09356 121.404 7.86874 120.505 7.86874H117.657V18.3605H114.135V4.94604H114.06Z" fill="white"/>
<path d="M128.599 4.94604H135.418C137.517 4.94604 139.165 5.54557 140.289 6.81957C141.414 8.01862 141.938 9.66733 141.938 11.8406C141.938 13.6392 141.488 15.138 140.514 16.3371C139.39 17.686 137.667 18.4354 135.193 18.4354H132.121V23.3066H128.599V4.94604ZM132.196 7.7938V15.4378H134.369C135.793 15.4378 136.767 15.138 137.367 14.5385C137.966 13.939 138.266 12.9647 138.266 11.5408C138.266 10.1919 137.966 9.21768 137.442 8.69309C136.917 8.09356 135.943 7.86874 134.594 7.86874H132.196V7.7938Z" fill="white"/>
<path d="M149.432 18.3605C144.936 18.3605 142.688 16.1122 142.688 11.6907C142.688 7.19427 144.936 4.94604 149.432 4.94604H154.603V7.7938H149.882C148.758 7.7938 147.933 7.94368 147.484 8.1685C146.884 8.54321 146.584 9.21768 146.584 10.2669H154.603V13.1146H146.584C146.584 14.1638 146.884 14.9132 147.484 15.213C147.933 15.4378 148.683 15.5877 149.882 15.5877H154.603V18.4354H149.432V18.3605Z" fill="white"/>
<path d="M163.446 15.438H167.193V18.3607H162.397C160.149 18.3607 158.425 17.8361 157.376 16.787C156.027 15.513 155.427 13.7893 155.427 11.7659C155.427 9.59264 156.102 7.869 157.376 6.595C158.5 5.54583 160.149 5.02124 162.397 5.02124H167.193V7.94394H163.446C161.872 7.94394 160.823 8.16876 160.149 8.69335C159.399 9.29287 159.025 10.2671 159.025 11.7659C159.025 13.7144 159.774 14.9134 161.198 15.3631C161.348 15.438 161.872 15.438 162.622 15.513C162.997 15.438 163.296 15.438 163.446 15.438Z" fill="white"/>
<path d="M176.111 15.438H179.858V18.3607H175.062C172.814 18.3607 171.09 17.8361 170.041 16.787C168.692 15.513 168.092 13.7893 168.092 11.7659C168.092 9.59264 168.767 7.869 170.041 6.595C171.165 5.54583 172.814 5.02124 175.062 5.02124H179.858V7.94394H176.111C174.537 7.94394 173.488 8.16876 172.814 8.69335C172.064 9.29287 171.69 10.2671 171.69 11.7659C171.69 13.7144 172.439 14.9134 173.863 15.3631C174.013 15.438 174.537 15.438 175.287 15.513C175.662 15.438 175.961 15.438 176.111 15.438Z" fill="white"/>
<path d="M3.22267 26.6786H1.57397V25.8542H3.29761C4.79643 25.8542 5.54584 26.6786 5.54584 28.3273C5.54584 29.2266 5.32102 29.8261 4.79643 30.2008C4.42172 30.5006 3.97208 30.6505 3.29761 30.6505H1.57397V29.8261H3.22267C3.59738 29.8261 3.89714 29.7512 4.12196 29.5264C4.27184 29.3765 4.42172 29.0018 4.42172 28.6271H1.57397V27.8027H4.42172C4.34678 27.0533 3.97208 26.6786 3.22267 26.6786Z" fill="white"/>
<path d="M7.34415 27.1287H8.31838V28.8523L9.8172 27.1287H11.0163L9.36755 28.8523L11.0163 30.6509H9.66732L8.24344 28.9272V30.6509H7.26921V27.1287H7.34415Z" fill="white"/>
<path d="M14.2388 29.9017H15.2131V30.6511H13.9391C13.3395 30.6511 12.8899 30.5012 12.5901 30.2015C12.2154 29.8268 12.0656 29.3771 12.0656 28.8525C12.0656 28.253 12.2154 27.8034 12.5901 27.5036C12.8899 27.2038 13.3395 27.054 13.9391 27.054H15.2131V27.8034H14.2388C13.8641 27.8034 13.5644 27.8783 13.3396 28.0282C13.1147 28.1781 13.0398 28.4778 13.0398 28.8525C13.0398 29.3771 13.2646 29.6769 13.6393 29.8268C13.7143 29.8268 13.7892 29.8268 14.014 29.8268C14.1639 29.9017 14.2388 29.9017 14.2388 29.9017Z" fill="white"/>
<path d="M16.8617 27.1287H18.6603C19.1849 27.1287 19.5596 27.2036 19.7844 27.4284C20.0092 27.6532 20.1591 27.953 20.1591 28.4776V30.7258H19.2598V28.5525C19.2598 28.3277 19.1849 28.1029 19.11 28.028C19.035 27.953 18.8851 27.8781 18.5854 27.8781H17.836V30.6509H16.8617V27.1287Z" fill="white"/>
<path d="M21.8829 27.1287H23.6815C24.2061 27.1287 24.6557 27.2785 24.9555 27.6532C25.2553 27.953 25.4051 28.4027 25.4051 29.0022C25.4051 29.4518 25.2553 29.9015 25.0304 30.2012C24.7307 30.5759 24.281 30.7258 23.6066 30.7258H22.7822V31.9998H21.808V27.1287H21.8829ZM22.8571 27.8781V29.9015H23.4567C23.8314 29.9015 24.1311 29.8265 24.281 29.6767C24.4309 29.5268 24.5058 29.227 24.5058 28.8523C24.5058 28.4776 24.4309 28.2528 24.281 28.1029C24.1311 27.953 23.9063 27.8781 23.5316 27.8781H22.8571Z" fill="white"/>
<path d="M28.5525 30.6511C27.3534 30.6511 26.7539 30.0516 26.7539 28.8525C26.7539 27.6535 27.3534 27.054 28.5525 27.054H29.9014V27.8034H28.6274C28.3276 27.8034 28.1028 27.8034 28.0279 27.8783C27.878 27.9532 27.803 28.1781 27.803 28.4029H29.9014V29.1523H27.803C27.803 29.4521 27.878 29.6019 28.0279 29.6769C28.1778 29.7518 28.3276 29.7518 28.6274 29.7518H29.9014V30.5012H28.5525V30.6511Z" fill="white"/>
<path d="M33.4235 29.9017H34.3978V30.6511H33.1238C32.5242 30.6511 32.0746 30.5012 31.7748 30.2015C31.4001 29.8268 31.2503 29.3771 31.2503 28.8525C31.2503 28.253 31.4001 27.8034 31.7748 27.5036C32.0746 27.2038 32.5242 27.054 33.1238 27.054H34.3978V27.8034H33.4235C33.0488 27.8034 32.7491 27.8783 32.5242 28.0282C32.2994 28.1781 32.2245 28.4778 32.2245 28.8525C32.2245 29.3771 32.4493 29.6769 32.824 29.8268C32.899 29.8268 32.9739 29.8268 33.1987 29.8268C33.3486 29.9017 33.4235 29.9017 33.4235 29.9017Z" fill="white"/>
<path d="M37.995 29.9017H38.9693V30.6511H37.6953C37.0957 30.6511 36.6461 30.5012 36.3463 30.2015C35.9716 29.8268 35.8217 29.3771 35.8217 28.8525C35.8217 28.253 35.9716 27.8034 36.3463 27.5036C36.6461 27.2038 37.0957 27.054 37.6953 27.054H38.9693V27.8034H37.995C37.6203 27.8034 37.3206 27.8783 37.0957 28.0282C36.8709 28.1781 36.796 28.4778 36.796 28.8525C36.796 29.3771 37.0208 29.6769 37.3955 29.8268C37.4704 29.8268 37.5454 29.8268 37.7702 29.8268C37.9201 29.9017 37.9201 29.9017 37.995 29.9017Z" fill="white"/>
<path d="M40.3183 28.4026H42.5665V29.2269H40.3183V28.4026Z" fill="white"/>
<path d="M46.5383 31.9251V30.6511H45.714C45.0395 30.6511 44.5899 30.5012 44.2901 30.1265C44.0653 29.8268 43.9154 29.3771 43.9154 28.9275C43.9154 28.328 44.0653 27.9532 44.3651 27.5785C44.6648 27.2788 45.1145 27.054 45.6391 27.054H47.4376V31.9251H46.5383ZM45.9388 29.9017H46.5383V27.8783H45.8639C45.4892 27.8783 45.2644 27.9532 45.1145 28.1031C44.9646 28.253 44.8896 28.4778 44.8896 28.8525C44.8896 29.2272 44.9646 29.527 45.1145 29.6769C45.3393 29.8268 45.5641 29.9017 45.9388 29.9017Z" fill="white"/>
<path d="M52.8334 28.8523C52.8334 29.4518 52.6835 29.9015 52.3088 30.2012C51.9341 30.501 51.4845 30.7258 50.9599 30.7258C50.4353 30.7258 49.9107 30.5759 49.6109 30.2012C49.2362 29.9015 49.0863 29.4518 49.0863 28.8523C49.0863 28.2528 49.2362 27.8031 49.6109 27.5033C49.9856 27.2036 50.4353 26.9788 50.9599 26.9788C51.5594 26.9788 52.009 27.1286 52.3088 27.5033C52.6086 27.878 52.8334 28.3277 52.8334 28.8523ZM49.9856 28.8523C49.9856 29.152 50.0606 29.4518 50.2105 29.6017C50.3603 29.8265 50.5852 29.9015 50.8849 29.9015C51.1847 29.9015 51.4095 29.8265 51.5594 29.6017C51.7093 29.3769 51.7842 29.152 51.7842 28.8523C51.7842 28.1029 51.4845 27.8031 50.8849 27.8031C50.5852 27.8031 50.3603 27.8781 50.2105 28.1029C50.0606 28.3277 49.9856 28.5525 49.9856 28.8523Z" fill="white"/>
<path d="M56.2806 29.9017H57.2549V30.6511H55.9809C55.3814 30.6511 54.9317 30.5012 54.6319 30.2015C54.2572 29.8268 54.1074 29.3771 54.1074 28.8525C54.1074 28.253 54.2572 27.8034 54.6319 27.5036C54.9317 27.2038 55.3814 27.054 55.9809 27.054H57.2549V27.8034H56.2806C55.9059 27.8034 55.6062 27.8783 55.3814 28.0282C55.1565 28.1781 55.0816 28.4778 55.0816 28.8525C55.0816 29.3771 55.3064 29.6769 55.6811 29.8268C55.7561 29.8268 55.831 29.8268 56.0558 29.8268C56.2057 29.9017 56.2806 29.9017 56.2806 29.9017Z" fill="white"/>
<path d="M58.9037 27.1287H62.5009C63.0254 27.1287 63.3252 27.2036 63.55 27.4284C63.7748 27.6532 63.9247 27.953 63.9247 28.4776V30.7258H62.9505V28.5525C62.9505 28.3277 62.8756 28.1029 62.8006 28.028C62.7257 27.953 62.5758 27.8781 62.276 27.8781H61.7514V30.6509H60.7772V27.8781H59.6531V30.6509H58.6789V27.1287H58.9037Z" fill="white"/>
<path d="M65.8729 27.1287H67.8214C68.7956 27.1287 69.3202 27.5783 69.3202 28.4776V30.7258H66.7722C66.0228 30.7258 65.6481 30.3511 65.6481 29.6767C65.6481 29.227 65.798 28.9272 66.0228 28.7774C66.2476 28.6275 66.5474 28.5525 67.072 28.5525H68.346V28.4776C68.346 28.2528 68.271 28.1029 68.1211 28.028C67.9713 27.953 67.8214 27.953 67.5216 27.953H65.8729V27.1287ZM67.1469 29.9764H68.346V29.227H67.2219C67.072 29.227 66.9221 29.227 66.8472 29.302C66.6973 29.3769 66.6973 29.4518 66.6973 29.6017C66.6973 29.7516 66.7722 29.8265 66.8472 29.9015C66.8472 29.9015 66.9221 29.9764 67.1469 29.9764Z" fill="white"/>
<path d="M71.044 27.1287H73.592C74.3415 27.1287 74.7162 27.5034 74.7162 28.1778C74.7162 28.4776 74.6412 28.7774 74.4913 28.9272C74.6412 29.0771 74.7162 29.3769 74.7162 29.6767C74.7162 30.3511 74.3415 30.7258 73.592 30.7258H71.044V27.1287ZM72.0183 27.8031V28.4776H73.4422C73.667 28.4776 73.7419 28.3277 73.7419 28.1029C73.7419 27.953 73.667 27.8781 73.592 27.8031C73.5171 27.8031 73.4422 27.7282 73.2173 27.7282H72.0183V27.8031ZM73.2173 29.9764C73.3672 29.9764 73.5171 29.9764 73.592 29.9015C73.667 29.8265 73.7419 29.7516 73.7419 29.6017C73.7419 29.4518 73.667 29.302 73.592 29.227C73.5171 29.1521 73.3672 29.1521 73.2173 29.1521H72.0932V29.9015H73.2173V29.9764Z" fill="white"/>
<path d="M76.4397 27.1287H77.4139V28.8523L78.9127 27.1287H80.1118L78.4631 28.8523L80.1118 30.6509H78.8378L77.4139 28.9272V30.6509H76.4397V27.1287Z" fill="white"/>
<path d="M81.5356 27.1287H83.4841C84.4583 27.1287 84.9829 27.5783 84.9829 28.4776V30.7258H82.36C81.6105 30.7258 81.2358 30.3511 81.2358 29.6767C81.2358 29.227 81.3857 28.9272 81.6105 28.7774C81.8354 28.6275 82.1351 28.5525 82.6597 28.5525H83.9337V28.4776C83.9337 28.2528 83.8588 28.1029 83.7089 28.028C83.559 27.953 83.4091 27.953 83.1094 27.953H81.5356V27.1287ZM82.7347 29.9764H83.9337V29.227H82.8096C82.6597 29.227 82.5098 29.227 82.4349 29.302C82.285 29.3769 82.285 29.4518 82.285 29.6017C82.285 29.7516 82.36 29.8265 82.4349 29.9015C82.5098 29.9015 82.5848 29.9764 82.7347 29.9764Z" fill="white"/>
<path d="M86.9315 31.3257V30.7262H86.5568V29.9019H87.3812V30.5014C87.3812 30.8011 87.2313 31.1009 86.9315 31.3257Z" fill="white"/>
<path d="M94.9501 31.9251V30.6511H94.1258C93.4513 30.6511 93.0017 30.5012 92.7019 30.1265C92.4771 29.8268 92.3272 29.3771 92.3272 28.9275C92.3272 28.328 92.4771 27.9532 92.7768 27.5785C93.0766 27.2788 93.5263 27.054 94.0508 27.054H95.8494V31.9251H94.9501ZM94.4256 29.9017H95.0251V27.8783H94.3506C93.9759 27.8783 93.7511 27.9532 93.6012 28.1031C93.4513 28.253 93.3764 28.4778 93.3764 28.8525C93.3764 29.2272 93.4513 29.527 93.6012 29.6769C93.7511 29.8268 94.0508 29.9017 94.4256 29.9017Z" fill="white"/>
<path d="M101.245 28.8523C101.245 29.4518 101.095 29.9015 100.721 30.2012C100.346 30.501 99.8963 30.7258 99.3717 30.7258C98.7721 30.7258 98.3225 30.5759 98.0227 30.2012C97.648 29.9015 97.4981 29.4518 97.4981 28.8523C97.4981 28.2528 97.648 27.8031 98.0227 27.5033C98.3974 27.2036 98.8471 26.9788 99.3717 26.9788C99.9712 26.9788 100.421 27.1286 100.721 27.5033C101.095 27.878 101.245 28.3277 101.245 28.8523ZM98.4724 28.8523C98.4724 29.152 98.5473 29.4518 98.6972 29.6017C98.8471 29.8265 99.0719 29.9015 99.3717 29.9015C99.6714 29.9015 99.8963 29.8265 100.046 29.6017C100.196 29.3769 100.271 29.152 100.271 28.8523C100.271 28.1029 99.9712 27.8031 99.3717 27.8031C99.0719 27.8031 98.8471 27.8781 98.6972 28.1029C98.5473 28.3277 98.4724 28.5525 98.4724 28.8523Z" fill="white"/>
<path d="M104.693 29.9017H105.667V30.6511H104.393C103.793 30.6511 103.344 30.5012 103.044 30.2015C102.669 29.8268 102.519 29.3771 102.519 28.8525C102.519 28.253 102.669 27.8034 103.044 27.5036C103.344 27.2038 103.793 27.054 104.393 27.054H105.667V27.8034H104.693C104.318 27.8034 104.018 27.8783 103.793 28.0282C103.569 28.1781 103.494 28.4778 103.494 28.8525C103.494 29.3771 103.718 29.6769 104.093 29.8268C104.168 29.8268 104.243 29.8268 104.468 29.8268C104.618 29.9017 104.693 29.9017 104.693 29.9017Z" fill="white"/>
<path d="M107.315 27.1287H110.912C111.437 27.1287 111.737 27.2036 111.962 27.4284C112.186 27.6532 112.336 27.953 112.336 28.4776V30.7258H111.362V28.5525C111.362 28.3277 111.287 28.1029 111.212 28.028C111.137 27.953 110.987 27.8781 110.688 27.8781H110.163V30.6509H109.339V27.8781H108.215V30.6509H107.24V27.1287H107.315Z" fill="white"/>
<path d="M115.709 29.9017H116.458V27.1289H117.432V30.5762C117.432 31.4755 116.983 31.9251 116.083 31.9251H114.21V31.1757H115.859C116.233 31.1757 116.383 31.0258 116.383 30.6511V30.5762H115.559C115.034 30.5762 114.66 30.5012 114.435 30.2764C114.21 30.0516 114.06 29.6769 114.06 29.2272V27.054H114.959V29.1523C114.959 29.3771 115.034 29.6019 115.109 29.6769C115.334 29.8268 115.484 29.9017 115.709 29.9017Z" fill="white"/>
<path d="M119.231 27.1287H121.03C121.554 27.1287 121.929 27.2036 122.154 27.4284C122.379 27.6532 122.528 27.953 122.528 28.4776V30.7258H121.629V28.5525C121.629 28.3277 121.554 28.1029 121.479 28.028C121.404 27.953 121.254 27.8781 120.955 27.8781H120.205V30.6509H119.231V27.1287Z" fill="white"/>
<path d="M125.226 28.4778H126.575V27.054H127.55V30.5762H126.575V29.1523H125.226V30.5762H124.252V27.054H125.226V28.4778Z" fill="white"/>
<path d="M129.423 27.1287H131.371C132.346 27.1287 132.87 27.5783 132.87 28.4776V30.7258H130.322C129.573 30.7258 129.198 30.3511 129.198 29.6767C129.198 29.227 129.348 28.9272 129.573 28.7774C129.798 28.6275 130.097 28.5525 130.622 28.5525H131.896V28.4776C131.896 28.2528 131.821 28.1029 131.671 28.028C131.521 27.953 131.371 27.953 131.072 27.953H129.498V27.1287H129.423ZM130.622 29.9764H131.821V29.227H130.697C130.547 29.227 130.397 29.227 130.322 29.302C130.172 29.3769 130.172 29.4518 130.172 29.6017C130.172 29.7516 130.247 29.8265 130.322 29.9015C130.322 29.9015 130.472 29.9764 130.622 29.9764Z" fill="white"/>
<path d="M136.992 29.2272L135.793 30.6511H134.519L135.793 29.2272C135.343 29.2272 135.044 29.1523 134.819 29.0024C134.594 28.8525 134.444 28.5528 134.444 28.1031C134.444 27.4287 134.819 27.054 135.568 27.054H138.116V30.5762H137.142V29.1523H136.992V29.2272ZM136.018 27.8034C135.868 27.8034 135.718 27.8034 135.643 27.8783C135.568 27.9532 135.493 28.0282 135.493 28.1781C135.493 28.328 135.568 28.4778 135.643 28.4778C135.718 28.5528 135.868 28.5528 136.018 28.5528H137.142V27.8034H136.018Z" fill="white"/>
<path d="M143.437 27.1287H144.411V28.8523L145.91 27.1287H147.109L145.46 28.8523L147.109 30.6509H145.835L144.411 28.9272V30.6509H143.437V27.1287Z" fill="white"/>
<path d="M148.533 27.1287H150.481C151.456 27.1287 151.98 27.5783 151.98 28.4776V30.7258H149.432C148.683 30.7258 148.308 30.3511 148.308 29.6767C148.308 29.227 148.458 28.9272 148.683 28.7774C148.908 28.6275 149.207 28.5525 149.732 28.5525H151.006V28.4776C151.006 28.2528 150.931 28.1029 150.781 28.028C150.631 27.953 150.481 27.953 150.182 27.953H148.608V27.1287H148.533ZM149.807 29.9764H151.006V29.227H149.882C149.732 29.227 149.582 29.227 149.507 29.302C149.357 29.3769 149.357 29.4518 149.357 29.6017C149.357 29.7516 149.432 29.8265 149.507 29.9015C149.507 29.9015 149.582 29.9764 149.807 29.9764Z" fill="white"/>
<path d="M157.376 28.9272V30.6509H156.477V28.9272L155.053 30.6509H153.779L155.427 28.8523L153.779 27.1287H154.978L156.477 28.8523V27.1287H157.376V28.8523L158.875 27.1287H160.074L158.425 28.8523L160.074 30.6509H158.8L157.376 28.9272Z" fill="white"/>
<path d="M163.821 31.9251V30.6511H162.997C162.322 30.6511 161.872 30.5012 161.573 30.1265C161.348 29.8268 161.198 29.3771 161.198 28.9275C161.198 28.328 161.348 27.9532 161.648 27.5785C161.947 27.2788 162.397 27.054 162.922 27.054H164.72V31.9251H163.821ZM163.296 29.9017H163.896V27.8783H163.221C162.847 27.8783 162.622 27.9532 162.472 28.1031C162.322 28.253 162.247 28.4778 162.247 28.8525C162.247 29.2272 162.322 29.527 162.472 29.6769C162.622 29.8268 162.847 29.9017 163.296 29.9017Z" fill="white"/>
<path d="M170.116 28.8523C170.116 29.4518 169.966 29.9015 169.591 30.2012C169.217 30.501 168.767 30.7258 168.242 30.7258C167.643 30.7258 167.193 30.5759 166.893 30.2012C166.519 29.9015 166.369 29.4518 166.369 28.8523C166.369 28.2528 166.519 27.8031 166.893 27.5033C167.268 27.2036 167.718 26.9788 168.242 26.9788C168.842 26.9788 169.291 27.1286 169.591 27.5033C169.891 27.878 170.116 28.3277 170.116 28.8523ZM167.343 28.8523C167.343 29.152 167.418 29.4518 167.568 29.6017C167.718 29.8265 167.943 29.9015 168.242 29.9015C168.542 29.9015 168.767 29.8265 168.917 29.6017C169.067 29.3769 169.142 29.152 169.142 28.8523C169.142 28.1029 168.842 27.8031 168.242 27.8031C167.943 27.8031 167.718 27.8781 167.568 28.1029C167.418 28.3277 167.343 28.5525 167.343 28.8523Z" fill="white"/>
<path d="M172.664 28.4027V30.6509H171.69V27.1287H172.814L173.563 28.1778L174.313 27.1287H175.437V30.6509H174.463V28.4027L173.563 29.6017L172.664 28.4027Z" fill="white"/>
<path d="M178.734 29.9017H179.484V27.1289H180.458V30.5762C180.458 31.4755 180.008 31.9251 179.109 31.9251H177.235V31.1757H178.884C179.259 31.1757 179.409 31.0258 179.409 30.6511V30.5762H178.584C178.06 30.5762 177.685 30.5012 177.46 30.2764C177.235 30.0516 177.086 29.6769 177.086 29.2272V27.054H177.985V29.1523C177.985 29.3771 178.06 29.6019 178.135 29.6769C178.285 29.8268 178.435 29.9017 178.734 29.9017Z" fill="white"/>
</svg>
