<svg width="28" height="28" viewBox="0 0 28 28" fill="none" xmlns="http://www.w3.org/2000/svg">
<path d="M14 27.3333C6.63622 27.3333 0.666687 21.3638 0.666687 14C0.666687 6.63616 6.63622 0.666626 14 0.666626C21.3638 0.666626 27.3334 6.63616 27.3334 14C27.3253 21.3604 21.3605 27.3252 14 27.3333ZM13.9787 24.6666H14C19.889 24.6607 24.659 19.8836 24.656 13.9946C24.6531 8.10568 19.8783 3.3333 13.9894 3.3333C8.1004 3.3333 3.32563 8.10568 3.32269 13.9946C3.31974 19.8836 8.08974 24.6607 13.9787 24.6666ZM11.3334 20.6666L6.00002 15.3333L7.88002 13.4533L11.3334 16.8933L20.12 8.10663L22 9.99996L11.3334 20.6666Z" fill="#AC007C"/>
</svg>
