<svg width="30" height="30" viewBox="0 0 30 30" fill="none" xmlns="http://www.w3.org/2000/svg">
<path fill-rule="evenodd" clip-rule="evenodd" d="M15 29.6666C6.89982 29.6666 0.333328 23.1001 0.333328 14.9999C0.333328 6.89974 6.89982 0.333252 15 0.333252C23.1002 0.333252 29.6667 6.89974 29.6667 14.9999C29.6667 23.1001 23.1002 29.6666 15 29.6666ZM15 26.9999C21.6274 26.9999 27 21.6273 27 14.9999C27 8.3725 21.6274 2.99992 15 2.99992C8.37258 2.99992 2.99999 8.3725 2.99999 14.9999C2.99999 21.6273 8.37258 26.9999 15 26.9999ZM8.33333 20.3333V17.6666H21.6667V20.3333H8.33333ZM8.33333 9.66659V12.3333H21.6667V9.66659H8.33333ZM8.33333 13.6666V16.3333H21.6667V13.6666H8.33333Z" fill="white"/>
</svg>
