<svg width="30" height="30" viewBox="0 0 30 30" fill="none" xmlns="http://www.w3.org/2000/svg">
<path fill-rule="evenodd" clip-rule="evenodd" d="M15 29.6666C6.8998 29.6666 0.333313 23.1001 0.333313 14.9999C0.333313 6.89974 6.8998 0.333252 15 0.333252C23.1002 0.333252 29.6666 6.89974 29.6666 14.9999C29.6666 23.1001 23.1002 29.6666 15 29.6666ZM15 26.9999C21.6274 26.9999 27 21.6273 27 14.9999C27 8.3725 21.6274 2.99992 15 2.99992C8.37256 2.99992 2.99998 8.3725 2.99998 14.9999C2.99998 21.6273 8.37256 26.9999 15 26.9999ZM8.33331 20.3333V17.6666H21.6666V20.3333H8.33331ZM8.33331 9.66659V12.3333H21.6666V9.66659H8.33331ZM8.33331 13.6666V16.3333H21.6666V13.6666H8.33331Z" fill="#AC007C"/>
</svg>
