<svg width="30" height="30" viewBox="0 0 30 30" fill="none" xmlns="http://www.w3.org/2000/svg">
<path fill-rule="evenodd" clip-rule="evenodd" d="M15 29.6666C6.89983 29.6666 0.333336 23.1001 0.333336 14.9999C0.333336 6.89974 6.89983 0.333252 15 0.333252C23.1002 0.333252 29.6667 6.89974 29.6667 14.9999C29.6667 23.1001 23.1002 29.6666 15 29.6666ZM24.866 21.8328C26.2115 19.8937 27 17.5389 27 14.9999C27 8.3725 21.6274 2.99992 15 2.99992C8.37259 2.99992 3 8.3725 3 14.9999C3 17.5389 3.78851 19.8937 5.13401 21.8328C6.63461 19.8507 10.1608 18.9999 15 18.9999C19.8392 18.9999 23.3654 19.8507 24.866 21.8328ZM22.9529 23.9863C22.5627 22.5831 19.7592 21.6666 15 21.6666C10.2408 21.6666 7.43734 22.5831 7.04709 23.9863C9.1644 25.8615 11.9493 26.9999 15 26.9999C18.0508 26.9999 20.8356 25.8615 22.9529 23.9863ZM15 18.9999C12.0145 18.9999 9.66667 16.9031 9.66667 12.3333C9.66667 9.34093 11.7721 6.99992 15 6.99992C18.2189 6.99992 20.3333 9.56202 20.3333 12.5999C20.3333 16.9727 17.9575 18.9999 15 18.9999ZM12.3333 12.3333C12.3333 15.3589 13.4243 16.3333 15 16.3333C16.5703 16.3333 17.6667 15.3978 17.6667 12.5999C17.6667 10.9338 16.6209 9.66659 15 9.66659C13.3117 9.66659 12.3333 10.7544 12.3333 12.3333Z" fill="white"/>
</svg>
